<?xml version="1.0" standalone="no"?>
<!DOCTYPE svg PUBLIC "-//W3C//DTD SVG 20010904//EN"
 "http://www.w3.org/TR/2001/REC-SVG-20010904/DTD/svg10.dtd">
<svg version="1.0" xmlns="http://www.w3.org/2000/svg"
 width="32.000000pt" height="32.000000pt" viewBox="0 0 32.000000 32.000000"
 preserveAspectRatio="xMidYMid meet">

<g transform="translate(0.000000,32.000000) scale(0.100000,-0.100000)"
fill="#000000" stroke="none">
<path d="M20 160 l0 -90 140 0 140 0 0 90 0 90 -140 0 -140 0 0 -90z m260 0
l0 -70 -120 0 -120 0 0 70 0 70 120 0 120 0 0 -70z"/>
<path d="M60 160 c0 -50 1 -51 28 -48 25 3 27 6 27 48 0 42 -2 45 -27 48 -27
3 -28 2 -28 -48z m40 0 c0 -16 -4 -30 -10 -30 -5 0 -10 14 -10 30 0 17 5 30
10 30 6 0 10 -13 10 -30z"/>
<path d="M147 203 c-14 -13 -7 -84 8 -90 22 -8 33 6 15 18 -13 8 -13 10 0 19
13 9 13 11 0 21 -11 8 -12 12 -2 16 6 2 12 9 12 14 0 10 -23 12 -33 2z"/>
<path d="M200 198 c0 -26 21 -88 30 -88 9 0 14 14 25 68 4 20 3 32 -4 32 -6 0
-11 -7 -11 -15 0 -8 -4 -15 -10 -15 -5 0 -10 7 -10 15 0 8 -4 15 -10 15 -5 0
-10 -6 -10 -12z"/>
</g>
</svg>
